<svg width="261" height="328" viewBox="0 0 261 328" fill="none" xmlns="http://www.w3.org/2000/svg">
<path d="M26.4 138.128H77.472V118.16H46.368V53.264H26.4V138.128ZM80.723 138.128H102.611L106.195 129.296H133.331L137.043 138.128H158.931L119.763 48.912L80.723 138.128ZM113.107 112.4L119.763 96.144L126.419 112.4H113.107Z" fill="white"/>
<path d="M45.728 144.264H25.76V196.616C25.76 215.688 41.12 231.048 60.064 231.048C79.136 231.048 94.496 215.688 94.496 196.616V144.264H74.528V196.616C74.528 206.088 67.232 210.952 60.064 210.952C52.768 210.952 45.728 206.216 45.728 196.616V144.264ZM179.738 217.992L165.658 203.912C160.794 208.648 154.65 210.952 148.378 210.952C135.322 210.952 124.058 199.688 124.058 186.632C124.058 173.576 135.322 162.312 148.378 162.312C154.65 162.312 160.794 164.616 165.658 169.48L179.738 155.272C171.034 146.568 159.77 142.344 148.378 142.344C124.57 142.344 104.09 162.824 104.09 186.632C104.09 210.44 124.57 231.048 148.378 231.048C159.77 231.048 171.034 226.696 179.738 217.992ZM254.113 217.992L240.033 203.912C235.169 208.648 229.025 210.952 222.753 210.952C209.697 210.952 198.433 199.688 198.433 186.632C198.433 173.576 209.697 162.312 222.753 162.312C229.025 162.312 235.169 164.616 240.033 169.48L254.113 155.272C245.409 146.568 234.145 142.344 222.753 142.344C198.945 142.344 178.465 162.824 178.465 186.632C178.465 210.44 198.945 231.048 222.753 231.048C234.145 231.048 245.409 226.696 254.113 217.992Z" fill="white"/>
<path d="M51.8 240.12L27 240.04V293.08H39.48V275.8H46.36L57.88 293.08H72.84L60.04 273.8C65.72 270.84 69.64 264.84 69.64 257.96C69.64 248.04 61.64 240.12 51.8 240.12ZM51.8 263.32H39.48V252.52L51.8 252.6C55.32 252.6 57.08 255.32 57.08 257.96C57.08 260.68 55.32 263.32 51.8 263.32ZM72.28 293.08H85.96L88.2 287.56H105.16L107.48 293.08H121.16L96.68 237.32L72.28 293.08ZM92.52 277L96.68 266.84L100.84 277H92.52ZM136.824 252.52L147.224 252.6C154.984 252.6 161.224 259.16 161.224 266.36C161.224 273.56 155.624 280.44 147.224 280.44L136.824 280.6V252.52ZM124.344 293.08L147.224 293C161.864 293 173.704 281.16 173.704 266.52C173.704 251.96 161.944 240.12 147.224 240.12L124.344 240.04V293.08ZM180.047 293.08H192.527V240.04H180.047V293.08ZM226.516 238.92C211.236 238.92 198.916 251.24 198.916 266.52C198.916 281.8 211.236 294.12 226.516 294.12C241.716 294.12 254.116 281.8 254.116 266.52C254.116 251.24 241.716 238.92 226.516 238.92ZM226.516 251.4C234.836 251.4 241.636 258.2 241.636 266.52C241.636 274.92 234.836 281.64 226.516 281.64C218.116 281.64 211.396 274.92 211.396 266.52C211.396 258.2 218.116 251.4 226.516 251.4Z" fill="white"/>
<path d="M122.377 44.3464C109.372 55.8052 115 61.5 107 80L135.609 89.5038C129.576 81.2061 132.663 81.0769 129 75.5C129 62.0769 128.548 59.4027 129.494 55.8957C135.098 35.1305 124.173 28.778 118.092 28.1777C120.933 29.0243 122.3 35.471 123.077 37.3951C124.414 41.3805 124.152 42.1532 122.377 44.3464Z" fill="white" stroke="white"/>
<path d="M25.5 160.5C41.7589 162.026 42.2459 175.106 43.3927 180.852L32.5526 207.782C25.9977 207.598 26.8442 189.062 27.5977 186.25C29.592 179.394 23.1346 176.368 20.4702 174.22C4.69441 161.502 9.49954 150.608 13.8008 146.781C12.1056 149 15.6863 154.186 17.5 156C22.5 161 22.9326 159.812 25.5 160.5Z" fill="white" stroke="white"/>
<path d="M11.5 171.5C17.5 171.1 17.8333 171.667 19 172.5L12 164C13.6 167.2 8.33332 168.333 5.49998 168.5C1.09998 168.9 1.66664 173 2.49998 175C3.29998 171.4 10 171.5 11.5 171.5Z" fill="white" stroke="white"/>
<path d="M116.5 239.5C118.5 240.3 135.667 240.5 137.5 240.5C137.5 251.5 124.5 271.4 124.5 263C124.5 254.6 119.167 249.833 116.5 248.5C110.5 243.3 112.333 237.667 114 235.5C114 237.5 115.667 239 116.5 239.5Z" fill="white" stroke="white" stroke-width="0.3"/>
<path d="M172.256 289.532C178.82 281.157 181.487 265.688 182 259V292.5C179.5 293 177 293.5 172.769 296.511C172 297.5 171.5 299 171.743 300C170.922 299.302 170.375 297.383 170.204 296.511C169.384 293.021 171.23 290.404 172.256 289.532Z" fill="white" stroke="white" stroke-width="0.3"/>
</svg>
