<svg width="409" height="408" viewBox="0 0 409 408" fill="none" xmlns="http://www.w3.org/2000/svg">
<path d="M109.171 365.858C139.996 366.59 179.506 394.258 195.408 408C179.261 364.025 148.314 343.87 134.859 339.289C112.841 336.358 101.221 323.41 98.1626 317.302C89.3555 307.041 84.7073 261.723 83.4841 240.346C101.098 248.408 114.676 274.243 119.263 286.153C138.345 164.49 55.0444 125.523 11.0089 121.248C53.5766 163.024 51.3748 225.993 44.953 252.256C20.7334 240.529 4.89284 245.538 0 249.508C22.0178 248.775 35.4731 273.633 39.4485 286.153C48.9896 346.252 89.9059 364.331 109.171 365.858Z" fill="#D9D9D9" fill-opacity="0.44"/>
<path d="M141.042 221.392C124.781 294.043 169.99 362.965 194.628 388.344C182.802 351.651 193.396 303.339 200.171 283.769C210.519 252.214 237.127 229.036 249.138 221.392C297.181 206.715 313.503 118.652 315.659 76.4558C294.963 124.89 273.775 138.222 265.768 138.833C288.681 69.1172 261.149 18.6648 244.518 2.15308C256.344 52.0551 224.193 118.958 206.638 146.172C178.552 190.937 168.451 218.028 166.911 225.978C162.476 235.519 165.063 280.1 166.911 301.198C150.65 288.723 142.889 242.796 141.042 221.392Z" fill="#D9D9D9" fill-opacity="0.44"/>
<path d="M166.371 114.194C153.325 138.573 149.459 169.909 149.157 182.53C167.277 164.799 183.283 129.585 189.021 114.194C197.718 77.9945 172.109 52.9381 158.217 44.9348C177.062 69.314 171.505 101.266 166.371 114.194Z" fill="#D9D9D9" fill-opacity="0.44"/>
<path d="M227.774 317.914C204.968 337.08 206.623 383.645 210.302 404.531C241.201 341.872 283.87 320.678 301.343 317.914C336.656 313.491 360.811 289.041 368.474 277.369C403.052 241.985 409.244 187.066 408.018 164.029C406.546 168.452 394.53 186.144 388.706 194.438C371.785 212.867 355.293 215.631 349.163 214.71C309.436 213.235 279.885 223.924 270.076 229.453C223.728 251.568 213.98 287.813 214.9 303.17C234.028 273.684 263.333 277.369 275.594 282.898C262.352 285.847 238.197 307.47 227.774 317.914Z" fill="#D9D9D9" fill-opacity="0.44"/>
<path d="M89.4 160.128H140.472V140.16H109.368V75.264H89.4V160.128ZM143.723 160.128H165.611L169.195 151.296H196.331L200.043 160.128H221.931L182.763 70.912L143.723 160.128ZM176.107 134.4L182.763 118.144L189.419 134.4H176.107Z" fill="#E79015"/>
<path d="M108.728 166.264H88.76V218.616C88.76 237.688 104.12 253.048 123.064 253.048C142.136 253.048 157.496 237.688 157.496 218.616V166.264H137.528V218.616C137.528 228.088 130.232 232.952 123.064 232.952C115.768 232.952 108.728 228.216 108.728 218.616V166.264ZM242.738 239.992L228.658 225.912C223.794 230.648 217.65 232.952 211.378 232.952C198.322 232.952 187.058 221.688 187.058 208.632C187.058 195.576 198.322 184.312 211.378 184.312C217.65 184.312 223.794 186.616 228.658 191.48L242.738 177.272C234.034 168.568 222.77 164.344 211.378 164.344C187.57 164.344 167.09 184.824 167.09 208.632C167.09 232.44 187.57 253.048 211.378 253.048C222.77 253.048 234.034 248.696 242.738 239.992ZM317.113 239.992L303.033 225.912C298.169 230.648 292.025 232.952 285.753 232.952C272.697 232.952 261.433 221.688 261.433 208.632C261.433 195.576 272.697 184.312 285.753 184.312C292.025 184.312 298.169 186.616 303.033 191.48L317.113 177.272C308.409 168.568 297.145 164.344 285.753 164.344C261.945 164.344 241.465 184.824 241.465 208.632C241.465 232.44 261.945 253.048 285.753 253.048C297.145 253.048 308.409 248.696 317.113 239.992Z" fill="#054931"/>
<path d="M114.8 262.12L90 262.04V315.08H102.48V297.8H109.36L120.88 315.08H135.84L123.04 295.8C128.72 292.84 132.64 286.84 132.64 279.96C132.64 270.04 124.64 262.12 114.8 262.12ZM114.8 285.32H102.48V274.52L114.8 274.6C118.32 274.6 120.08 277.32 120.08 279.96C120.08 282.68 118.32 285.32 114.8 285.32ZM135.28 315.08H148.96L151.2 309.56H168.16L170.48 315.08H184.16L159.68 259.32L135.28 315.08ZM155.52 299L159.68 288.84L163.84 299H155.52ZM199.824 274.52L210.224 274.6C217.984 274.6 224.224 281.16 224.224 288.36C224.224 295.56 218.624 302.44 210.224 302.44L199.824 302.6V274.52ZM187.344 315.08L210.224 315C224.864 315 236.704 303.16 236.704 288.52C236.704 273.96 224.944 262.12 210.224 262.12L187.344 262.04V315.08ZM243.047 315.08H255.527V262.04H243.047V315.08ZM289.516 260.92C274.236 260.92 261.916 273.24 261.916 288.52C261.916 303.8 274.236 316.12 289.516 316.12C304.716 316.12 317.116 303.8 317.116 288.52C317.116 273.24 304.716 260.92 289.516 260.92ZM289.516 273.4C297.836 273.4 304.636 280.2 304.636 288.52C304.636 296.92 297.836 303.64 289.516 303.64C281.116 303.64 274.396 296.92 274.396 288.52C274.396 280.2 281.116 273.4 289.516 273.4Z" fill="#7A241D"/>
<path d="M185.377 66.3464C172.372 77.8052 178 83.5 170 102L198.609 111.504C192.576 103.206 195.663 103.077 192 97.5C192 84.0769 191.548 81.4027 192.494 77.8957C198.098 57.1305 187.173 50.778 181.092 50.1777C183.933 51.0243 185.3 57.471 186.077 59.3951C187.414 63.3805 187.152 64.1532 185.377 66.3464Z" fill="#E79015" stroke="#E79015"/>
<path d="M88.5 182.5C104.759 184.026 105.246 197.106 106.393 202.852L95.5526 229.782C88.9977 229.598 89.8442 211.062 90.5977 208.25C92.592 201.394 86.1346 198.368 83.4702 196.22C67.6944 183.502 72.4995 172.608 76.8008 168.781C75.1056 171 78.6863 176.186 80.5 178C85.5 183 85.9326 181.812 88.5 182.5Z" fill="#054931" stroke="#054931"/>
<path d="M74.5 193.5C80.5 193.1 80.8333 193.667 82 194.5L75 186C76.6 189.2 71.3333 190.333 68.5 190.5C64.1 190.9 64.6666 195 65.5 197C66.3 193.4 73 193.5 74.5 193.5Z" fill="#054931" stroke="#054931"/>
<path d="M179.5 261.5C181.5 262.3 198.667 262.5 200.5 262.5C200.5 273.5 187.5 293.4 187.5 285C187.5 276.6 182.167 271.833 179.5 270.5C173.5 265.3 175.333 259.667 177 257.5C177 259.5 178.667 261 179.5 261.5Z" fill="#7A241D" stroke="#7A241D" stroke-width="0.3"/>
<path d="M235.256 311.532C241.82 303.157 244.487 287.688 245 281V314.5C242.5 315 240 315.5 235.769 318.511C235 319.5 234.5 321 234.743 322C233.922 321.302 233.375 319.383 233.204 318.511C232.384 315.021 234.23 312.404 235.256 311.532Z" fill="#7A241D" stroke="#7A241D" stroke-width="0.3"/>
</svg>
